<svg xmlns="http://www.w3.org/2000/svg" width="1200" height="630" viewBox="0 0 1200 630">
<defs><linearGradient id="bg"><stop stop-color="#f7f4f1"/><stop offset="1" stop-color="#e8dbe7"/></linearGradient><linearGradient id="flap" x2="0" y2="1"><stop stop-color="#e2c4cd"/><stop offset="1" stop-color="#c98f9f"/></linearGradient></defs>
<rect width="1200" height="630" fill="url(#bg)"/>
<g fill="none" stroke="#c9c5d5" opacity=".5" stroke-width="28"><path d="M880 -180L1360 300L880 780L400 300Z"/><path d="M880 -50L1230 300L880 650L530 300Z" stroke-width="10"/></g>
<g fill="#754454"><circle cx="102" cy="112" r="43" fill="#f7f4f1" stroke="#b66e82"/><text x="102" y="122" text-anchor="middle" font-family="Georgia" font-size="28">Y/O</text>
<text x="65" y="244" font-family="Georgia" font-size="66">yuri ootani</text><text x="68" y="290" font-family="Arial" font-size="20" letter-spacing="5">PERSONAL ARCHIVE</text>
<text x="68" y="390" font-family="Arial" font-size="25">a few things i've made.</text><text x="68" y="432" font-family="Arial" font-size="25">open an envelope. see what turns up.</text>
<text x="68" y="554" font-family="Georgia" font-style="italic" font-size="23">two Ls make a W</text></g>
<rect x="728" y="76" width="362" height="500" rx="5" fill="#754454" opacity=".12"/>
<rect x="717" y="64" width="362" height="500" rx="5" fill="#f7f4f1" stroke="#d5c6cf"/>
<path d="M717 64H1079V128L925 170H870L717 128Z" fill="url(#flap)"/><circle cx="898" cy="136" r="13" fill="#ebcad2" stroke="#986878"/><circle cx="898" cy="136" r="3" fill="#986878"/>
<g color="#754454"><svg x="746" y="205" width="120" height="140" class="doodle-yuri" viewBox="0 0 120 125" role="img" aria-label="Yuri waving hello"><defs><filter id="_R_0_-marker" x="-5%" y="-5%" width="110%" height="110%" color-interpolation-filters="sRGB"><feTurbulence type="fractalNoise" baseFrequency=".7" numOctaves="2" seed="9" result="grain"></feTurbulence><feDisplacementMap in="SourceGraphic" in2="grain" scale=".45" xChannelSelector="R" yChannelSelector="G" result="ink"></feDisplacementMap><feColorMatrix in="grain" type="matrix" values="0 0 0 0 0  0 0 0 0 0  0 0 0 0 0  0 0 0 .32 .68" result="paper"></feColorMatrix><feComposite in="ink" in2="paper" operator="in"></feComposite></filter></defs><g filter="url(#_R_0_-marker)" stroke="currentColor" stroke-width="1.6" stroke-linecap="round" stroke-linejoin="round"><path fill="currentColor" d="M25 67Q17 40 27 23Q41 10 61 16Q81 18 83 42L85 68L71 72L29 72Z"></path><path fill="#f7f4f1" d="M30 40L34 30L43 41L48 28L55 41L62 29L72 42L77 36L76 59Q68 75 51 70Q34 68 30 51Z"></path><path fill="none" d="M38 48l7-2M59 47l7 2M45 61q8 6 15-1M40 72L32 95L34 113M65 73L77 84L95 63M72 90L95 73M40 75L51 85L61 75M51 85L52 109M35 96L68 98L70 114M95 73L99 61L104 58L99 55L98 49L94 53L90 49L89 57L86 55L85 61L95 63M107 44l4-5M112 53l5-1"></path><ellipse cx="44" cy="52" rx="2" ry="4" fill="currentColor"></ellipse><ellipse cx="65" cy="53" rx="2" ry="4" fill="currentColor"></ellipse></g></svg><svg x="864" y="202" width="115" height="116" class="doodle-borg-flying" viewBox="0 0 120 110" role="img" aria-label="Borg fluttering around a star"><g filter="url(#_R_0_-marker)" fill="none" stroke="currentColor" stroke-width="1.6" stroke-linecap="round" stroke-linejoin="round"><path d="M35 71Q13 62 9 24Q28 35 40 56M84 72Q105 58 113 21Q90 30 79 56M31 72Q29 48 58 48Q87 46 89 72Q58 88 31 72ZM33 77Q58 89 87 77"></path><ellipse cx="43" cy="65" rx="4" ry="7"></ellipse><ellipse cx="76" cy="64" rx="4" ry="7"></ellipse><path d="M21 84l-7 5M27 94l-6 5M58 14l3 8 9 2-8 4-2 9-4-9-8-2 8-4Z"></path></g></svg><svg x="872" y="324" width="170" height="105" class="doodle-original" viewBox="0 0 180 120" role="img" aria-label="Yuri-inspired pen doodle looking down at a little Borg"><defs><filter id="_R_7_-marker" x="-5%" y="-5%" width="110%" height="110%" color-interpolation-filters="sRGB"><feTurbulence type="fractalNoise" baseFrequency=".7" numOctaves="2" seed="9" result="grain"></feTurbulence><feDisplacementMap in="SourceGraphic" in2="grain" scale=".45" xChannelSelector="R" yChannelSelector="G" result="ink"></feDisplacementMap><feColorMatrix in="grain" type="matrix" values="0 0 0 0 0  0 0 0 0 0  0 0 0 0 0  0 0 0 .32 .68" result="paper"></feColorMatrix><feComposite in="ink" in2="paper" operator="in"></feComposite></filter></defs><g filter="url(#_R_7_-marker)" stroke="currentColor" stroke-width="1.6" stroke-linecap="round" stroke-linejoin="round"><path fill="currentColor" d="M29 70Q22 45 31 27Q37 12 61 15Q89 11 94 38L95 69L81 74L35 74Z"></path><path fill="#f7f4f1" d="M37 43L39 31L48 41L52 30L60 42L66 30L72 42L82 32L87 45L85 62Q76 79 59 75Q43 72 38 58Z"></path><path fill="none" d="M46 49q5-3 9 1M68 50q6-3 10 1"></path><ellipse cx="53" cy="55" rx="2.2" ry="4" fill="currentColor"></ellipse><ellipse cx="76" cy="56" rx="2.2" ry="4" fill="currentColor"></ellipse><path fill="none" d="M65 65q4 3 8-1M48 65l-3-1M79 67l3-1"></path><path fill="none" d="M48 76L39 89L38 105M73 78L88 92L106 99M48 78L57 88L67 80M57 88L59 104M45 88L49 104L75 106M75 87L83 99L102 103"></path><path fill="none" d="M38 109q24 4 45 1M116 109q22 4 42-1" opacity=".5"></path><path fill="#f7f4f1" d="M123 96Q110 90 112 64Q126 75 129 88M151 96Q166 89 165 64Q151 76 148 89"></path><path fill="var(--blush)" d="M120 98Q119 79 137 80Q155 80 155 98Q137 108 120 98Z"></path><ellipse cx="128" cy="92" rx="3" ry="5" fill="currentColor"></ellipse><ellipse cx="147" cy="92" rx="3" ry="5" fill="currentColor"></ellipse><path fill="none" d="M120 99Q139 104 155 98M100 61l4-4M105 68l6-1"></path></g></svg></g>
<g fill="none" stroke="#b66e82" stroke-width="2"><path d="M1010 202c-12-18-29 1 0 18c29-17 12-36 0-18Z"/><path d="M748 398q15-35 30-3t30-3"/></g>
<rect x="744" y="455" width="308" height="70" rx="2" fill="#ebcad255" stroke="#b66e82"/><text x="898" y="497" text-anchor="middle" fill="#754454" font-family="Georgia" font-style="italic" font-size="20">tap or sign to open</text>
</svg>